HIERARCHY
ROOT SpineBase
{
  OFFSET 0.000000 0.000000 0.000000
  CHANNELS 6 Xposition Yposition Zposition Zrotation Xrotation Yrotation
  JOINT SpineMid
  {
    OFFSET 0.000000 29.835419 0.000000
    CHANNELS 3 Zrotation Xrotation Yrotation
    JOINT SpineShoulder
    {
      OFFSET -0.243432 22.187592 -0.645804
      CHANNELS 3 Zrotation Xrotation Yrotation
      JOINT Neck
      {
        OFFSET -0.196807 7.346463 -0.501395
        CHANNELS 3 Zrotation Xrotation Yrotation
        JOINT Head
        {
          OFFSET -3.925571 9.488745 5.695992
          CHANNELS 3 Zrotation Xrotation Yrotation
          End Site
          {
            OFFSET 0 0 0
          }
        }
      }
      JOINT ShoulderLeft
      {
        OFFSET 0.198362 -8.125770 13.359595
        CHANNELS 3 Zrotation Xrotation Yrotation
        JOINT ElbowLeft
        {
          OFFSET 5.207840 -22.981227 5.268206
          CHANNELS 3 Zrotation Xrotation Yrotation
          JOINT WristLeft
          {
            OFFSET -5.258948 -22.785099 7.025292
            CHANNELS 3 Zrotation Xrotation Yrotation
            JOINT HandLeft
            {
              OFFSET -1.890586 -12.585703 -1.738644
              CHANNELS 3 Zrotation Xrotation Yrotation
              JOINT HandTipLeft
              {
                OFFSET -0.734281 -0.777236 -0.882639
                CHANNELS 3 Zrotation Xrotation Yrotation
                End Site
                {
                  OFFSET 0 0 0
                }
              }
              JOINT ThumbLeft
              {
                OFFSET -0.859697 0.607940 -1.252187
                CHANNELS 3 Zrotation Xrotation Yrotation
                End Site
                {
                  OFFSET 0 0 0
                }
              }
            }
          }
        }
      }
      JOINT ShoulderRight
      {
        OFFSET -0.099702 -2.796509 -13.799260
        CHANNELS 3 Zrotation Xrotation Yrotation
        JOINT ElbowRight
        {
          OFFSET -1.293421 -23.822300 -5.821218
          CHANNELS 3 Zrotation Xrotation Yrotation
          JOINT WristRight
          {
            OFFSET -4.717483 -21.994312 -0.225913
            CHANNELS 3 Zrotation Xrotation Yrotation
            JOINT HandRight
            {
              OFFSET -0.550248 -8.244881 2.759098
              CHANNELS 3 Zrotation Xrotation Yrotation
              JOINT HandTipRight
              {
                OFFSET -5.106566 -7.196304 -1.100226
                CHANNELS 3 Zrotation Xrotation Yrotation
                End Site
                {
                  OFFSET 0 0 0
                }
              }
              JOINT ThumbRight
              {
                OFFSET 5.373506 0.388357 0.920229
                CHANNELS 3 Zrotation Xrotation Yrotation
                End Site
                {
                  OFFSET 0 0 0
                }
              }
            }
          }
        }
      }
    }
  }
  JOINT HipLeft
  {
    OFFSET -1.309835 0.176356 2.978500
    CHANNELS 3 Zrotation Xrotation Yrotation
    JOINT KneeLeft
    {
      OFFSET 12.578239 -27.278433 -21.380530
      CHANNELS 3 Zrotation Xrotation Yrotation
      JOINT AnkleLeft
      {
        OFFSET -0.141961 -37.113907 0.963504
        CHANNELS 3 Zrotation Xrotation Yrotation
        JOINT FootLeft
        {
          OFFSET -11.151165 -3.815285 -2.274733
          CHANNELS 3 Zrotation Xrotation Yrotation
          End Site
          {
            OFFSET 0 0 0
          }
        }
      }
    }
  }
  JOINT HipRight
  {
    OFFSET -1.618147 1.668387 -9.261134
    CHANNELS 3 Zrotation Xrotation Yrotation
    JOINT KneeRight
    {
      OFFSET 6.150096 -42.252421 -0.937693
      CHANNELS 3 Zrotation Xrotation Yrotation
      JOINT AnkleRight
      {
        OFFSET 5.683639 -32.306254 -3.552422
        CHANNELS 3 Zrotation Xrotation Yrotation
        JOINT FootRight
        {
          OFFSET -6.174076 -6.387121 -1.048048
          CHANNELS 3 Zrotation Xrotation Yrotation
          End Site
          {
            OFFSET 0 0 0
          }
        }
      }
    }
  }
}
MOTION
Frames: 14
Frame Time: 0.033333
145.425457 80.737745 316.740339 -1.107742 -0.646794 93.617190 0.091886 -0.343967 -93.652245 0.769980 0.533762 0.024683 -1.572245 0.170363 1.021539 0.000000 0.000000 0.000000 -0.000000 0.000000 0.000000 -1.501286 6.064756 -1.808395 1.657458 -25.930756 5.160797 12.490454 -12.307174 22.156612 0.000000 0.000000 0.000000 0.000000 0.000000 0.000000 -3.764874 -1.336641 0.949950 2.225385 -0.137679 -0.697404 1.753727 5.582251 -0.573894 8.332883 -7.905150 2.636869 0.000000 0.000000 0.000000 0.000000 0.000000 0.000000 -1.884100 0.172119 -93.905735 3.080192 4.017563 0.175685 29.944464 -7.736561 10.168016 0.000000 0.000000 0.000000 2.118259 -2.391417 -93.360484 0.227589 -0.522630 -0.158795 -13.229535 2.862856 -1.571633 0.000000 0.000000 0.000000
145.393768 80.732503 316.750926 -1.085564 -0.665131 93.426683 0.073011 -0.344967 -93.461822 0.745281 0.571985 0.024250 -1.427275 0.346883 1.007989 0.000000 0.000000 0.000000 -0.000000 0.000000 0.000000 -1.507982 6.073378 -1.812053 4.336342 -26.551179 5.706366 18.352314 -11.845951 6.262265 0.000000 0.000000 0.000000 0.000000 0.000000 0.000000 -4.061528 -1.771312 1.028135 2.833619 0.795051 -0.913734 2.268375 4.953480 -0.205501 5.484174 -5.823207 0.760718 0.000000 0.000000 0.000000 0.000000 0.000000 0.000000 -1.780833 -0.269008 -94.029888 2.709131 4.091976 0.490678 35.832179 -8.360993 12.325542 0.000000 0.000000 0.000000 2.262883 -2.392209 -93.149769 0.554398 -0.631446 -0.203493 -12.134572 3.597529 -2.399415 0.000000 0.000000 0.000000
145.376653 80.713363 316.754696 -1.049247 -0.669824 93.146965 0.050284 -0.343696 -93.181524 0.708526 0.601074 0.023503 -1.301253 0.540676 1.012849 0.000000 0.000000 0.000000 -0.000000 0.000000 0.000000 -1.512237 6.079098 -1.814431 6.412043 -27.318259 6.215468 14.726663 -3.167022 -3.964179 0.000000 0.000000 0.000000 0.000000 0.000000 0.000000 -4.665719 -2.672681 1.181061 3.930700 1.581261 -1.144052 1.721882 8.318236 -0.494908 4.808140 -11.481230 3.291394 0.000000 0.000000 0.000000 0.000000 0.000000 0.000000 -1.761338 -0.540649 -93.978671 2.470811 4.212715 0.717029 39.158747 -8.642355 13.630660 0.000000 0.000000 0.000000 2.362292 -2.349852 -92.856747 0.748471 -0.771655 -0.239963 -11.152525 4.193646 -3.028854 0.000000 0.000000 0.000000
145.377314 80.684124 316.742726 -0.989438 -0.654485 92.743127 0.018847 -0.333946 -92.776235 0.656477 0.619964 0.022360 -1.227983 0.689904 1.030806 0.000000 0.000000 0.000000 -0.000000 0.000000 0.000000 -1.516723 6.084273 -1.816744 8.044891 -27.739148 6.598466 11.404190 10.831456 -17.170072 0.000000 0.000000 0.000000 0.000000 0.000000 0.000000 -4.968347 -3.125118 1.254288 4.471740 2.032974 -1.280336 1.104293 9.625352 -0.688344 4.218377 -13.195780 3.941707 0.000000 0.000000 0.000000 0.000000 0.000000 0.000000 -1.721584 -0.703253 -93.713561 2.301577 4.219580 0.858574 39.374528 -8.690045 14.007723 0.000000 0.000000 0.000000 2.388702 -2.247079 -92.450807 1.038596 -0.783226 -0.263833 -9.779307 4.444183 -3.561757 0.000000 0.000000 0.000000
145.382184 80.637874 316.735632 -0.928363 -0.640249 92.399968 -0.005165 -0.328070 -92.431334 0.600076 0.631917 0.021092 -1.085227 0.800134 0.989779 0.000000 0.000000 0.000000 -0.000000 0.000000 0.000000 -1.520670 6.089102 -1.818842 8.744988 -28.401598 6.883439 10.257535 17.901703 -22.103505 0.000000 0.000000 0.000000 0.000000 0.000000 0.000000 -4.979210 -3.045034 1.255568 4.455489 1.910333 -1.265604 1.037531 9.887756 -0.738349 3.461520 -14.381822 4.703707 0.000000 0.000000 0.000000 0.000000 0.000000 0.000000 -1.796661 -0.702022 -93.443112 2.234311 4.356184 0.929219 38.859231 -8.684139 14.913412 0.000000 0.000000 0.000000 2.424592 -2.149505 -92.103632 1.589438 -0.410075 -0.251160 -6.387434 3.662915 -4.123748 0.000000 0.000000 0.000000
145.394821 80.588011 316.710219 -0.865710 -0.609970 92.034232 -0.029031 -0.323890 -92.063411 0.540727 0.627689 0.019666 -0.842141 0.956365 0.906427 0.000000 0.000000 0.000000 -0.000000 0.000000 0.000000 -1.523952 6.093563 -1.820686 9.116508 -29.171230 7.141231 9.587444 22.336877 -24.408137 0.000000 0.000000 0.000000 0.000000 0.000000 0.000000 -4.606509 -2.606731 1.166844 3.691384 1.456898 -1.101316 1.188027 9.162301 -0.754613 2.755902 -13.237612 4.341567 0.000000 0.000000 0.000000 0.000000 0.000000 0.000000 -1.836680 -0.728116 -93.145764 2.041569 4.418201 1.002249 38.242667 -8.675681 15.371637 0.000000 0.000000 0.000000 2.419799 -2.032968 -91.738274 1.837462 -0.209412 -0.239572 -5.190317 3.189821 -4.209494 0.000000 0.000000 0.000000
145.405888 80.519553 316.685798 -0.809629 -0.591004 91.761711 0.565834 -0.827415 -91.761801 -0.000000 0.000000 0.000000 -0.553636 1.237398 0.846454 0.000000 0.000000 0.000000 -0.000000 0.000000 0.000000 -1.596660 6.149838 -1.851895 8.638652 -30.580930 7.408863 13.085699 22.613315 -29.209999 0.000000 0.000000 0.000000 0.000000 0.000000 0.000000 -3.921414 -1.745247 0.995454 2.297133 0.437060 -0.794723 1.316195 7.633462 -0.835185 2.618610 -10.756772 3.770004 0.000000 0.000000 0.000000 0.000000 0.000000 0.000000 -1.921905 -0.678748 -92.906545 1.837541 4.591208 1.039570 31.227764 -8.417553 13.052579 0.000000 0.000000 0.000000 2.427370 -1.950539 -91.465013 1.722535 -0.121328 -0.213939 -5.003306 2.429260 -3.650379 0.000000 0.000000 0.000000
145.410150 80.480266 316.648548 -0.761707 -0.572266 91.532909 0.551684 -0.776743 -91.532973 -0.000000 0.000000 0.000000 -0.611685 1.243858 0.884617 0.000000 0.000000 0.000000 -0.000000 0.000000 0.000000 -1.594560 6.155714 -1.852687 6.794617 -30.879953 7.092957 17.227011 18.432681 -31.337961 0.000000 0.000000 0.000000 0.000000 0.000000 0.000000 -3.476651 -1.319145 0.882415 1.297686 0.068147 -0.650128 1.575789 6.628438 -0.849842 3.922225 -9.924895 3.885123 0.000000 0.000000 0.000000 0.000000 0.000000 0.000000 -1.876197 -0.726301 -92.715548 1.587934 4.579165 1.086907 26.295928 -8.055212 11.515874 0.000000 0.000000 0.000000 2.341188 -1.876895 -91.250726 1.441177 -0.141473 -0.193489 -6.653311 1.975042 -2.783566 0.000000 0.000000 0.000000
145.406113 80.462618 316.623278 -0.731074 -0.580173 91.481683 0.561075 -0.745831 -91.481733 -0.000000 0.000000 0.000000 -0.978136 1.026626 1.018769 0.000000 0.000000 0.000000 -0.000000 0.000000 0.000000 -1.510288 6.105005 -1.819792 6.521610 -30.929573 7.024978 17.668832 17.633842 -31.329509 0.000000 0.000000 0.000000 0.000000 0.000000 0.000000 -2.950747 -0.835089 0.745311 -0.062255 -0.215413 -0.516913 2.194970 5.373708 -0.813570 5.694642 -9.257874 4.121687 0.000000 0.000000 0.000000 0.000000 0.000000 0.000000 -1.748624 -0.808053 -92.691034 1.350372 4.506675 1.123308 23.433065 -7.811203 10.764171 0.000000 0.000000 0.000000 2.275598 -1.842339 -91.213231 0.766466 -0.483495 -0.188925 -9.907064 2.036122 -1.715695 0.000000 0.000000 0.000000
145.394107 80.475720 316.574628 -0.724602 -0.580096 91.492589 0.561025 -0.739466 -91.492637 -0.000000 0.000000 0.000000 -1.783788 0.444789 1.266970 0.000000 0.000000 0.000000 -0.000000 0.000000 0.000000 -1.355363 6.003677 -1.757274 4.803346 -30.374716 6.512840 20.002548 13.164069 -30.713736 0.000000 0.000000 0.000000 0.000000 0.000000 0.000000 -2.352914 -0.109021 0.578204 -1.337346 -1.353839 -0.270704 2.766260 4.660904 -0.882824 4.413764 -7.698590 3.675595 0.000000 0.000000 0.000000 0.000000 0.000000 0.000000 -1.468898 -1.001198 -92.717883 1.097026 4.176784 1.152830 22.498412 -7.682122 10.620011 0.000000 0.000000 0.000000 2.131785 -1.829547 -91.248442 0.812560 -0.393349 -0.183779 -10.419249 1.577460 -1.191423 0.000000 0.000000 0.000000
145.405073 80.482727 316.535456 -0.692736 -0.616921 91.421642 -0.109997 -0.272893 -91.447781 0.416925 0.720251 0.017420 -2.926141 -0.579450 1.523015 0.000000 0.000000 0.000000 -0.000000 0.000000 0.000000 -1.162356 5.844892 -1.671549 3.552973 -30.357059 6.204984 23.853047 3.424179 -28.936001 0.000000 0.000000 0.000000 0.000000 0.000000 0.000000 -2.265088 -0.170368 0.559050 -1.619013 -0.987745 -0.304035 3.467229 3.994309 -0.645911 5.524141 -6.489090 2.688289 0.000000 0.000000 0.000000 0.000000 0.000000 0.000000 -1.127025 -1.171960 -92.649621 0.721384 3.840239 1.172410 23.285368 -7.735361 10.893868 0.000000 0.000000 0.000000 2.068726 -1.744367 -91.195272 0.841489 -0.337960 -0.177385 -10.547062 1.571935 -1.109093 0.000000 0.000000 0.000000
145.374614 80.508172 316.517166 -0.731590 -0.675911 91.342289 -0.156115 -0.252885 -91.372307 0.214663 -0.045444 -0.019868 -3.898401 -1.031862 1.788790 0.000000 0.000000 0.000000 0.259798 0.871774 0.039127 -0.708241 5.718120 -1.525098 0.834428 -29.664818 5.452386 26.973123 -0.505929 -29.343495 0.000000 0.000000 0.000000 0.000000 0.000000 0.000000 -2.035342 0.450481 0.649231 -1.341822 -0.290649 -0.396934 3.458984 4.459365 -0.523536 6.526401 -7.873446 3.083324 0.000000 0.000000 0.000000 0.000000 0.000000 0.000000 -1.014232 -1.465378 -92.742882 0.421263 4.043926 1.343249 29.519907 -8.601656 14.356835 0.000000 0.000000 0.000000 2.119068 -1.775686 -91.116565 0.830556 -0.474342 -0.198045 -10.536559 1.391711 -0.795540 0.000000 0.000000 0.000000
145.318478 80.553840 316.427180 -0.820569 -0.679482 91.301733 -0.219470 -0.253195 -91.336308 0.172347 -0.079461 -0.028104 -5.789541 -3.061448 2.073153 0.000000 0.000000 0.000000 0.389198 0.973040 0.049350 -0.417677 5.516732 -1.402526 -0.815588 -29.681989 5.072951 25.357179 4.101789 -27.603113 0.000000 0.000000 0.000000 0.000000 0.000000 0.000000 -2.647649 -0.787063 0.894359 0.205838 1.501929 -0.722831 3.590179 6.944524 -0.345382 6.040939 -12.228342 4.407111 0.000000 0.000000 0.000000 0.000000 0.000000 0.000000 -0.892910 -1.656343 -92.723638 0.219197 3.692176 1.371326 32.989098 -8.595465 15.955668 0.000000 0.000000 0.000000 2.043873 -1.861353 -91.086975 0.847333 -0.618931 -0.225590 -10.572256 1.305391 -0.468865 0.000000 0.000000 0.000000
145.259611 80.615780 316.192715 -0.967511 -0.565227 91.269302 -0.293796 -0.256301 -91.308329 0.147393 -0.107000 -0.035488 -7.916617 -5.700191 2.196066 0.000000 0.000000 0.000000 0.556320 0.960972 0.059074 -0.493346 5.201317 -1.348512 -1.867196 -28.828910 4.747271 25.418244 8.515340 -30.418501 0.000000 0.000000 0.000000 0.000000 0.000000 0.000000 -2.846084 -1.321608 1.007568 1.431505 2.281265 -0.932001 2.603539 7.984036 -0.403017 7.073351 -13.354495 4.632160 0.000000 0.000000 0.000000 0.000000 0.000000 0.000000 -0.754804 -1.864251 -92.613418 -0.025826 2.673743 1.309951 30.728235 -7.830648 14.623877 0.000000 0.000000 0.000000 1.631863 -1.971857 -91.101603 0.944138 -0.448432 -0.216594 -10.029779 1.170076 -0.306519 0.000000 0.000000 0.000000
